0
SECTION
2
HEADER
9
$INSUNITS
70
4
9
$ACADVER
1
AC1014
9
$HANDSEED
5
FFFF
0
ENDSEC
0
SECTION
2
TABLES
0
TABLE
2
VPORT
5
8
100
AcDbSymbolTable
0
ENDTAB
0
TABLE
2
LTYPE
5
5
100
AcDbSymbolTable
0
LTYPE
5
14
100
AcDbSymbolTableRecord
100
AcDbLinetypeTableRecord
2
BYBLOCK
70
0
0
LTYPE
5
15
100
AcDbSymbolTableRecord
100
AcDbLinetypeTableRecord
2
BYLAYER
70
0
0
LTYPE
5
16
100
AcDbSymbolTableRecord
100
AcDbLinetypeTableRecord
2
DASHED
70
0
3
Dashed __ __ __ __ __ __ __ __ __ __ __ __ __ _
72
65
73
2
40
0.75
49
0.5
74
0
49
-0.25
74
0
0
ENDTAB
0
TABLE
2
LAYER
5
2
100
AcDbSymbolTable
70
3
0
LAYER
5
50
100
AcDbSymbolTableRecord
100
AcDbLayerTableRecord
2
1
70
0
62
7
6
DASHED
0
LAYER
5
51
100
AcDbSymbolTableRecord
100
AcDbLayerTableRecord
2
0
70
0
62
7
6
CONTINUOUS
0
ENDTAB
0
TABLE
2
STYLE
5
3
100
AcDbSymbolTable
70
1
0
STYLE
5
11
100
AcDbSymbolTableRecord
100
AcDbTextStyleTableRecord
2
STANDARD
70
0
0
ENDTAB
0
TABLE
2
VIEW
5
6
100
AcDbSymbolTable
70
0
0
ENDTAB
0
TABLE
2
UCS
5
7
100
AcDbSymbolTable
70
0
0
ENDTAB
0
TABLE
2
APPID
5
9
100
AcDbSymbolTable
70
2
0
APPID
5
12
100
AcDbSymbolTableRecord
100
AcDbRegAppTableRecord
2
ACAD
70
0
0
ENDTAB
0
TABLE
2
DIMSTYLE
5
A
100
AcDbSymbolTable
70
1
0
ENDTAB
0
TABLE
2
BLOCK_RECORD
5
1
100
AcDbSymbolTable
70
1
0
BLOCK_RECORD
5
1F
100
AcDbSymbolTableRecord
100
AcDbBlockTableRecord
2
*MODEL_SPACE
0
BLOCK_RECORD
5
1B
100
AcDbSymbolTableRecord
100
AcDbBlockTableRecord
2
*PAPER_SPACE
0
ENDTAB
0
ENDSEC
0
SECTION
2
BLOCKS
0
BLOCK
5
20
100
AcDbEntity
100
AcDbBlockBegin
2
*MODEL_SPACE
0
ENDBLK
5
21
100
AcDbEntity
100
AcDbBlockEnd
0
BLOCK
5
1C
100
AcDbEntity
100
AcDbBlockBegin
2
*PAPER_SPACE
0
ENDBLK
5
1D
100
AcDbEntity
100
AcDbBlockEnd
0
ENDSEC
0
SECTION
2
ENTITIES
0
CIRCLE
5
100
100
AcDbEntity
8
0
100
AcDbCircle
10
32.500000000000028
20
109.5000000000006
30
0
40
2.7499999999999991
210
-5.5423729818450793e-61
220
4.3163716014846985e-124
230
1
0
LWPOLYLINE
5
101
100
AcDbEntity
8
0
100
AcDbPolyline
90
4
70
1
43
0.0
10
-13.750000000000188
20
109.00000000000061
42
0.99999999999999989
10
-17.25000000000022
20
109.00000000000061
10
-17.250000000000206
20
106.0000000000006
42
0.99999999999999989
10
-13.75000000000021
20
106.00000000000058
0
LWPOLYLINE
5
102
100
AcDbEntity
8
0
100
AcDbPolyline
90
4
70
1
43
0.0
10
13.749999999999787
20
75.000000000000583
42
0.99999999999999989
10
17.249999999999808
20
75.000000000000597
10
17.249999999999808
20
78.000000000000597
42
0.99999999999999989
10
13.749999999999783
20
78.000000000000597
0
LWPOLYLINE
5
103
100
AcDbEntity
8
0
100
AcDbPolyline
90
4
70
1
43
0.0
10
-17.250000000000206
20
75.000000000000583
42
0.99999999999999989
10
-13.750000000000204
20
75.000000000000583
10
-13.750000000000204
20
78.000000000000597
42
0.99999999999999989
10
-17.250000000000206
20
78.000000000000597
0
CIRCLE
5
104
100
AcDbEntity
8
0
100
AcDbCircle
10
-32.500000000000007
20
109.50000000000061
30
0
40
2.7499999999999991
210
-5.5423729818450793e-61
220
4.3163716014846985e-124
230
1
0
LWPOLYLINE
5
105
100
AcDbEntity
8
0
100
AcDbPolyline
90
4
70
1
43
0.0
10
11.499999999999812
20
93.500000000000639
42
0.99999999999999989
10
-11.500000000000185
20
93.500000000000597
10
-11.50000000000019
20
90.500000000000597
42
0.99999999999999989
10
11.499999999999812
20
90.500000000000625
0
CIRCLE
5
106
100
AcDbEntity
8
0
100
AcDbCircle
10
2.6645352590995944e-14
20
170.50000000000057
30
0
40
2.7499999999998876
210
1.5229380991444173e-81
220
-1.1860563667671608e-144
230
1
0
CIRCLE
5
107
100
AcDbEntity
8
0
100
AcDbCircle
10
32.500000000000028
20
170.50000000000057
30
0
40
2.7499999999999991
210
-5.5423729818450793e-61
220
4.3163716014846985e-124
230
1
0
LWPOLYLINE
5
108
100
AcDbEntity
8
0
100
AcDbPolyline
90
4
70
1
43
0.0
10
17.249999999999808
20
109.00000000000061
42
0.99999999999999989
10
13.749999999999783
20
109.00000000000061
10
13.749999999999783
20
106.0000000000006
42
0.99999999999999989
10
17.249999999999815
20
106.0000000000006
0
CIRCLE
5
109
100
AcDbEntity
8
0
100
AcDbCircle
10
-32.499999999999986
20
170.50000000000057
30
0
40
2.7499999999999991
210
-5.5423729818450793e-61
220
4.3163716014846985e-124
230
1
0
LWPOLYLINE
5
110
100
AcDbEntity
8
0
100
AcDbPolyline
90
12
70
1
43
0.0
10
-42.499999999999972
20
175.00000000000054
10
-42.500000000000007
20
98.284271247462442
42
0.19891236737965812
10
-36.642135623730965
20
84.142135623731548
10
-23.357864376269077
20
70.857864376269589
42
0.19891236737965864
10
-9.2157287525381104
20
65.00000000000054
10
9.2157287525381104
20
65.000000000000554
42
0.19891236737965742
10
23.357864376269045
20
70.857864376269589
10
36.642135623730979
20
84.142135623731519
42
0.19891236737965848
10
42.500000000000036
20
98.284271247462442
10
42.500000000000028
20
175.00000000000057
42
0.41421356237309337
10
32.500000000000028
20
185.00000000000057
10
-32.499999999999972
20
185.00000000000054
42
0.41421356237309415
0
ENDSEC
0
SECTION
2
OBJECTS
0
DICTIONARY
5
C
100
AcDbDictionary
3
ACAD_GROUP
350
D
3
ACAD_MLINESTYLE
350
17
0
DICTIONARY
5
D
100
AcDbDictionary
0
DICTIONARY
5
1A
330
C
100
AcDbDictionary
0
DICTIONARY
5
17
100
AcDbDictionary
0
ENDSEC
0
EOF
