0
SECTION
2
HEADER
9
$INSUNITS
70
4
9
$ACADVER
1
AC1014
9
$HANDSEED
5
FFFF
0
ENDSEC
0
SECTION
2
TABLES
0
TABLE
2
VPORT
5
8
100
AcDbSymbolTable
0
ENDTAB
0
TABLE
2
LTYPE
5
5
100
AcDbSymbolTable
0
LTYPE
5
14
100
AcDbSymbolTableRecord
100
AcDbLinetypeTableRecord
2
BYBLOCK
70
0
0
LTYPE
5
15
100
AcDbSymbolTableRecord
100
AcDbLinetypeTableRecord
2
BYLAYER
70
0
0
LTYPE
5
16
100
AcDbSymbolTableRecord
100
AcDbLinetypeTableRecord
2
DASHED
70
0
3
Dashed __ __ __ __ __ __ __ __ __ __ __ __ __ _
72
65
73
2
40
0.75
49
0.5
74
0
49
-0.25
74
0
0
ENDTAB
0
TABLE
2
LAYER
5
2
100
AcDbSymbolTable
70
3
0
LAYER
5
50
100
AcDbSymbolTableRecord
100
AcDbLayerTableRecord
2
1
70
0
62
7
6
DASHED
0
LAYER
5
51
100
AcDbSymbolTableRecord
100
AcDbLayerTableRecord
2
0
70
0
62
7
6
CONTINUOUS
0
ENDTAB
0
TABLE
2
STYLE
5
3
100
AcDbSymbolTable
70
1
0
STYLE
5
11
100
AcDbSymbolTableRecord
100
AcDbTextStyleTableRecord
2
STANDARD
70
0
0
ENDTAB
0
TABLE
2
VIEW
5
6
100
AcDbSymbolTable
70
0
0
ENDTAB
0
TABLE
2
UCS
5
7
100
AcDbSymbolTable
70
0
0
ENDTAB
0
TABLE
2
APPID
5
9
100
AcDbSymbolTable
70
2
0
APPID
5
12
100
AcDbSymbolTableRecord
100
AcDbRegAppTableRecord
2
ACAD
70
0
0
ENDTAB
0
TABLE
2
DIMSTYLE
5
A
100
AcDbSymbolTable
70
1
0
ENDTAB
0
TABLE
2
BLOCK_RECORD
5
1
100
AcDbSymbolTable
70
1
0
BLOCK_RECORD
5
1F
100
AcDbSymbolTableRecord
100
AcDbBlockTableRecord
2
*MODEL_SPACE
0
BLOCK_RECORD
5
1B
100
AcDbSymbolTableRecord
100
AcDbBlockTableRecord
2
*PAPER_SPACE
0
ENDTAB
0
ENDSEC
0
SECTION
2
BLOCKS
0
BLOCK
5
20
100
AcDbEntity
100
AcDbBlockBegin
2
*MODEL_SPACE
0
ENDBLK
5
21
100
AcDbEntity
100
AcDbBlockEnd
0
BLOCK
5
1C
100
AcDbEntity
100
AcDbBlockBegin
2
*PAPER_SPACE
0
ENDBLK
5
1D
100
AcDbEntity
100
AcDbBlockEnd
0
ENDSEC
0
SECTION
2
ENTITIES
0
LWPOLYLINE
5
100
100
AcDbEntity
8
0
100
AcDbPolyline
90
4
70
1
43
0.0
10
-14.500001049044272
20
123.50000000000003
10
-5.5000010490443207
20
123.5
42
-0.99999999999999989
10
-5.500001049044303
20
120.49999999999999
10
-14.500001049044307
20
120.50000000000003
42
-0.99999999999999989
0
LWPOLYLINE
5
101
100
AcDbEntity
8
0
100
AcDbPolyline
90
4
70
1
43
0.0
10
-5.5000010490442852
20
112.49999999999999
42
0.99999999999999989
10
-5.5000010490443119
20
115.49999999999999
10
-14.500001049044261
20
115.50000000000003
42
0.99999999999999989
10
-14.500001049044307
20
112.50000000000001
0
LWPOLYLINE
5
102
100
AcDbEntity
8
0
100
AcDbPolyline
90
4
70
1
43
0.0
10
-5.5000010490443074
20
104.5
42
0.99999999999999989
10
-5.5000010490443341
20
107.50000000000007
10
-14.500001049044279
20
107.50000000000003
42
0.99999999999999989
10
-14.500001049044332
20
104.50000000000003
0
CIRCLE
5
103
100
AcDbEntity
8
0
100
AcDbCircle
10
-40.000001049041941
20
139.00000000000011
30
0
40
4.1000000000000014
210
1.2334648435854717e-33
220
-1.9849549026173166e-47
230
1
0
LWPOLYLINE
5
104
100
AcDbEntity
8
0
100
AcDbPolyline
90
12
70
1
43
0.0
10
49.999998950955785
20
154.49999999999977
42
0.41421356237309681
10
42.499998950955785
20
161.99999999999977
10
-42.500001049044215
20
161.99999999999977
42
0.41421356237309648
10
-50.000001049044215
20
154.49999999999977
10
-50.000001049044215
20
55.284271247461696
42
0.19891236737965765
10
-44.142136672775152
20
41.142135623730738
10
-30.857865425313264
20
27.857864376268829
42
0.19891236737965762
10
-16.715729801582309
20
21.999999999999787
10
16.715727703493886
20
21.99999999999978
42
0.19891236737965742
10
30.857863327224841
20
27.857864376268843
10
44.142134574686729
20
41.142135623730738
42
0.19891236737965762
10
49.999998950955778
20
55.284271247461668
0
LWPOLYLINE
5
105
100
AcDbEntity
8
0
100
AcDbPolyline
90
8
70
1
43
0.0
10
-41.300001049044141
20
152.15000000000023
10
-41.300001049044184
20
147.85000000000025
42
-0.41421356237310025
10
-41.800001049044198
20
147.35000000000022
10
-44.800001049044198
20
147.35000000000028
42
-0.41421356237308982
10
-45.300001049044184
20
147.85000000000028
10
-45.300001049044141
20
152.15000000000026
42
-0.41421356237310025
10
-44.800001049044127
20
152.65000000000026
10
-41.80000104904412
20
152.6500000000002
42
-0.41421356237308982
0
LWPOLYLINE
5
106
100
AcDbEntity
8
0
100
AcDbPolyline
90
4
70
1
43
0.0
10
-35.600001049044124
20
153.30000000000015
10
-32.200001049044111
20
153.30000000000013
42
-0.99999999999999989
10
-32.200001049044204
20
146.70000000000013
10
-35.600001049044216
20
146.70000000000016
42
-0.99999999999999989
0
LWPOLYLINE
5
107
100
AcDbEntity
8
0
100
AcDbPolyline
90
8
70
1
43
0.0
10
-26.500001049044187
20
147.85000000000005
10
-26.500001049044148
20
152.15000000000006
42
-0.41421356237309764
10
-26.000001049044137
20
152.65000000000006
10
-23.000001049044137
20
152.65000000000001
42
-0.41421356237309243
10
-22.500001049044144
20
152.15000000000001
10
-22.500001049044176
20
147.85000000000002
42
-0.41421356237309764
10
-23.000001049044187
20
147.35000000000002
10
-26.000001049044187
20
147.35000000000005
42
-0.41421356237309243
0
LWPOLYLINE
5
108
100
AcDbEntity
8
0
100
AcDbPolyline
90
8
70
1
43
0.0
10
45.299998950955704
20
152.15000000000026
10
45.299998950955775
20
147.85000000000028
42
-0.41421356237308982
10
44.799998950955775
20
147.35000000000025
10
41.799998950955782
20
147.35000000000025
42
-0.41421356237310025
10
41.299998950955782
20
147.85000000000022
10
41.299998950955711
20
152.1500000000002
42
-0.41421356237308982
10
41.799998950955704
20
152.65000000000023
10
44.799998950955704
20
152.65000000000026
42
-0.41421356237310025
0
LWPOLYLINE
5
109
100
AcDbEntity
8
0
100
AcDbPolyline
90
4
70
1
43
0.0
10
35.599998950955793
20
146.70000000000016
10
32.199998950955774
20
146.70000000000013
42
-0.99999999999999989
10
32.199998950955688
20
153.30000000000013
10
35.599998950955708
20
153.30000000000015
42
-0.99999999999999989
0
LWPOLYLINE
5
110
100
AcDbEntity
8
0
100
AcDbPolyline
90
8
70
1
43
0.0
10
22.499998950955764
20
147.85000000000002
10
22.499998950955707
20
152.15000000000001
42
-0.41421356237309243
10
22.99999895095571
20
152.65000000000003
10
25.999998950955717
20
152.65000000000003
42
-0.41421356237309764
10
26.499998950955721
20
152.15000000000006
10
26.499998950955771
20
147.85000000000005
42
-0.41421356237309243
10
25.999998950955767
20
147.35000000000005
10
22.99999895095576
20
147.35000000000002
42
-0.41421356237309764
0
CIRCLE
5
111
100
AcDbEntity
8
0
100
AcDbCircle
10
9.9999989509557885
20
150
30
0
40
2.6000000000000001
210
1.0947644252537633e-47
220
1.1754943508222875e-38
230
1
0
CIRCLE
5
112
100
AcDbEntity
8
0
100
AcDbCircle
10
-10.000001049044211
20
130
30
0
40
2.6000000000000001
210
1.0947644252537633e-47
220
1.1754943508222875e-38
230
1
0
CIRCLE
5
113
100
AcDbEntity
8
0
100
AcDbCircle
10
-10.000001049044211
20
150
30
0
40
2.6000000000000001
210
1.0947644252537633e-47
220
1.1754943508222875e-38
230
1
0
CIRCLE
5
114
100
AcDbEntity
8
0
100
AcDbCircle
10
9.9999989509557885
20
130
30
0
40
2.6000000000000001
210
1.0947644252537633e-47
220
1.1754943508222875e-38
230
1
0
CIRCLE
5
115
100
AcDbEntity
8
0
100
AcDbCircle
10
-37.500001049044215
20
60.000000000000007
30
0
40
2.6000000000000001
210
1.0947644252537633e-47
220
1.1754943508222875e-38
230
1
0
CIRCLE
5
116
100
AcDbEntity
8
0
100
AcDbCircle
10
-35.000001049044215
20
120.5
30
0
40
2.6000000000000001
210
1.0947644252537633e-47
220
1.1754943508222875e-38
230
1
0
CIRCLE
5
117
100
AcDbEntity
8
0
100
AcDbCircle
10
37.499998950955785
20
60.000000000000007
30
0
40
2.6000000000000001
210
1.0947644252537633e-47
220
1.1754943508222875e-38
230
1
0
CIRCLE
5
118
100
AcDbEntity
8
0
100
AcDbCircle
10
34.999998950955785
20
120.5
30
0
40
2.6000000000000001
210
1.0947644252537633e-47
220
1.1754943508222875e-38
230
1
0
LWPOLYLINE
5
119
100
AcDbEntity
8
0
100
AcDbPolyline
90
4
70
1
43
0.0
10
13.749998950955931
20
55.999999999999453
10
13.749998950956076
20
58.999999999999424
42
-0.99999999999999989
10
17.249998950956087
20
58.999999999999375
10
17.249998950955955
20
55.999999999999368
42
-0.99999999999999989
0
LWPOLYLINE
5
120
100
AcDbEntity
8
0
100
AcDbPolyline
90
4
70
1
43
0.0
10
-17.250001049044013
20
55.999999999999929
10
-17.250001049044052
20
58.999999999999943
42
-0.99999999999999989
10
-13.750001049043892
20
58.999999999999872
10
-13.750001049043927
20
55.999999999999886
42
-0.99999999999999989
0
LWPOLYLINE
5
121
100
AcDbEntity
8
0
100
AcDbPolyline
90
4
70
1
43
0.0
10
13.749998950955433
20
24.999999999999464
10
13.749998950955575
20
27.999999999999456
42
-0.99999999999999989
10
17.249998950955661
20
27.999999999999314
10
17.249998950955518
20
24.999999999999321
42
-0.99999999999999989
0
LWPOLYLINE
5
122
100
AcDbEntity
8
0
100
AcDbPolyline
90
4
70
1
43
0.0
10
-17.25000104904451
20
24.999999999999932
10
-17.250001049044403
20
27.999999999999932
42
-0.99999999999999989
10
-13.750001049044318
20
27.999999999999826
10
-13.750001049044421
20
24.999999999999819
42
-0.99999999999999989
0
LWPOLYLINE
5
123
100
AcDbEntity
8
0
100
AcDbPolyline
90
4
70
1
43
0.0
10
11.49999895095581
20
43.499999999999474
10
11.49999895095581
20
40.499999999999439
42
-0.99999999999999989
10
-11.500001049044233
20
40.499999999999794
10
-11.500001049044165
20
43.499999999999773
42
-0.99999999999999989
0
ENDSEC
0
SECTION
2
OBJECTS
0
DICTIONARY
5
C
100
AcDbDictionary
3
ACAD_GROUP
350
D
3
ACAD_MLINESTYLE
350
17
0
DICTIONARY
5
D
100
AcDbDictionary
0
DICTIONARY
5
1A
330
C
100
AcDbDictionary
0
DICTIONARY
5
17
100
AcDbDictionary
0
ENDSEC
0
EOF
